<?xml version="1.0" standalone="no"?>
<!DOCTYPE svg PUBLIC "-//W3C//DTD SVG 20010904//EN"
 "http://www.w3.org/TR/2001/REC-SVG-20010904/DTD/svg10.dtd">
<svg version="1.0" xmlns="http://www.w3.org/2000/svg"
 width="221.000000pt" height="173.000000pt" viewBox="0 0 221.000000 173.000000"
 preserveAspectRatio="xMidYMid meet">

<g transform="translate(0.000000,173.000000) scale(0.100000,-0.100000)"
fill="#000000" stroke="none">
<path d="M1070 1065 l0 -525 30 0 30 0 0 525 0 525 -30 0 -30 0 0 -525z"/>
<path d="M1190 869 l0 -720 33 3 32 3 3 718 2 717 -35 0 -35 0 0 -721z"/>
<path d="M1310 1325 l0 -265 35 0 35 0 0 265 0 265 -35 0 -35 0 0 -265z"/>
<path d="M827 1243 c-4 -3 -7 -102 -7 -220 l0 -213 35 0 35 0 0 220 0 220 -28
0 c-16 0 -32 -3 -35 -7z"/>
<path d="M945 1237 c-3 -6 -4 -165 -3 -352 l3 -340 33 -3 32 -3 0 355 0 356
-30 0 c-17 0 -33 -6 -35 -13z"/>
<path d="M1310 801 l0 -211 35 0 35 0 -2 208 -3 207 -32 3 -33 3 0 -210z"/>
<path d="M1430 800 l0 -210 35 0 35 0 0 210 0 210 -35 0 -35 0 0 -210z"/>
<path d="M827 753 c-4 -3 -7 -89 -7 -190 l0 -183 35 0 35 0 0 190 0 190 -28 0
c-16 0 -32 -3 -35 -7z"/>
<path d="M460 450 l0 -300 35 0 35 0 0 300 0 300 -35 0 -35 0 0 -300z"/>
<path d="M580 450 l0 -300 35 0 35 0 0 300 0 300 -35 0 -35 0 0 -300z"/>
<path d="M700 565 l0 -185 35 0 35 0 0 185 0 185 -35 0 -35 0 0 -185z"/>
<path d="M1310 344 l0 -195 33 3 32 3 3 193 2 192 -35 0 -35 0 0 -196z"/>
<path d="M1430 345 l0 -195 35 0 35 0 0 195 0 195 -35 0 -35 0 0 -195z"/>
<path d="M1550 345 l0 -195 35 0 35 0 0 195 0 195 -35 0 -35 0 0 -195z"/>
<path d="M1670 345 l0 -195 35 0 35 0 0 195 0 195 -35 0 -35 0 0 -195z"/>
<path d="M947 493 c-4 -3 -7 -30 -7 -60 l0 -53 35 0 35 0 0 60 c0 59 0 60 -28
60 -16 0 -32 -3 -35 -7z"/>
<path d="M1070 440 l0 -60 30 0 30 0 0 60 0 60 -30 0 -30 0 0 -60z"/>
<path d="M220 275 l0 -125 35 0 35 0 0 125 0 125 -35 0 -35 0 0 -125z"/>
<path d="M340 275 l0 -125 35 0 35 0 0 125 0 125 -35 0 -35 0 0 -125z"/>
<path d="M707 323 c-4 -3 -7 -44 -7 -90 l0 -83 35 0 35 0 0 90 0 90 -28 0
c-16 0 -32 -3 -35 -7z"/>
<path d="M824 317 c-3 -8 -4 -47 -2 -88 l3 -74 33 -3 32 -3 0 90 0 91 -30 0
c-17 0 -33 -6 -36 -13z"/>
<path d="M944 317 c-3 -8 -4 -47 -2 -88 l3 -74 33 -3 32 -3 0 90 0 91 -30 0
c-17 0 -33 -6 -36 -13z"/>
<path d="M1070 240 l0 -90 30 0 30 0 0 90 0 90 -30 0 -30 0 0 -90z"/>
<path d="M1790 215 l0 -65 35 0 35 0 0 65 0 65 -35 0 -35 0 0 -65z"/>
<path d="M1910 215 l0 -65 35 0 35 0 0 65 0 65 -35 0 -35 0 0 -65z"/>
</g>
</svg>
