<?xml version="1.0" standalone="no"?>
<!DOCTYPE svg PUBLIC "-//W3C//DTD SVG 20010904//EN"
 "http://www.w3.org/TR/2001/REC-SVG-20010904/DTD/svg10.dtd">
<svg version="1.0" xmlns="http://www.w3.org/2000/svg"
 width="513.000000pt" height="248.000000pt" viewBox="0 0 513.000000 248.000000"
 preserveAspectRatio="xMidYMid meet">

<g transform="translate(0.000000,248.000000) scale(0.100000,-0.100000)"
fill="#000000" stroke="none">
<path d="M2510 1740 l0 -520 30 0 30 0 0 520 0 520 -30 0 -30 0 0 -520z"/>
<path d="M2630 1545 l0 -715 35 0 35 0 0 715 0 715 -35 0 -35 0 0 -715z"/>
<path d="M2750 1995 l0 -265 35 0 35 0 0 265 0 265 -35 0 -35 0 0 -265z"/>
<path d="M2260 1700 l0 -220 35 0 35 0 0 220 0 220 -35 0 -35 0 0 -220z"/>
<path d="M2380 1570 l0 -350 35 0 35 0 0 350 0 350 -35 0 -35 0 0 -350z"/>
<path d="M2750 1469 l0 -210 33 3 32 3 3 208 2 207 -35 0 -35 0 0 -211z"/>
<path d="M2870 1470 l0 -210 35 0 35 0 0 210 0 210 -35 0 -35 0 0 -210z"/>
<path d="M1907 1423 c-4 -3 -7 -138 -7 -300 l0 -293 35 0 35 0 0 300 0 300
-28 0 c-16 0 -32 -3 -35 -7z"/>
<path d="M2027 1423 c-4 -3 -7 -138 -7 -300 l0 -293 35 0 35 0 0 300 0 300
-28 0 c-16 0 -32 -3 -35 -7z"/>
<path d="M2147 1423 c-4 -3 -7 -89 -7 -190 l0 -183 35 0 35 0 0 190 0 190 -28
0 c-16 0 -32 -3 -35 -7z"/>
<path d="M2260 1240 l0 -190 35 0 35 0 0 190 0 190 -35 0 -35 0 0 -190z"/>
<path d="M2750 1020 l0 -190 35 0 35 0 0 190 0 190 -35 0 -35 0 0 -190z"/>
<path d="M2870 1020 l0 -190 35 0 35 0 0 190 0 190 -35 0 -35 0 0 -190z"/>
<path d="M2990 1020 l0 -190 35 0 35 0 0 190 0 190 -35 0 -35 0 0 -190z"/>
<path d="M3110 1020 l0 -190 35 0 35 0 0 190 0 190 -35 0 -35 0 0 -190z"/>
<path d="M2380 1110 l0 -60 35 0 35 0 0 60 0 60 -35 0 -35 0 0 -60z"/>
<path d="M2510 1110 l0 -60 30 0 30 0 0 60 0 60 -30 0 -30 0 0 -60z"/>
<path d="M1660 950 l0 -120 35 0 35 0 0 120 0 120 -35 0 -35 0 0 -120z"/>
<path d="M1780 950 l0 -120 35 0 35 0 0 120 0 120 -35 0 -35 0 0 -120z"/>
<path d="M2140 915 l0 -85 35 0 35 0 0 85 0 85 -35 0 -35 0 0 -85z"/>
<path d="M2260 915 l0 -85 35 0 35 0 0 85 0 85 -35 0 -35 0 0 -85z"/>
<path d="M2380 915 l0 -85 35 0 35 0 0 85 0 85 -35 0 -35 0 0 -85z"/>
<path d="M2510 915 l0 -85 30 0 30 0 0 85 0 85 -30 0 -30 0 0 -85z"/>
<path d="M3230 890 l0 -60 35 0 35 0 0 60 0 60 -35 0 -35 0 0 -60z"/>
<path d="M3350 890 l0 -60 35 0 35 0 0 60 0 60 -35 0 -35 0 0 -60z"/>
<path d="M2774 569 c-101 -29 -133 -166 -54 -232 16 -14 58 -35 92 -46 84 -28
90 -33 86 -67 -7 -62 -109 -54 -116 9 -3 26 -6 27 -63 27 l-59 0 0 -45 c0 -32
4 -45 14 -45 8 0 29 -15 48 -34 113 -113 308 -34 295 118 -6 64 -39 95 -133
126 -85 28 -96 36 -92 69 3 22 9 26 41 29 44 4 74 -16 79 -52 3 -19 9 -21 58
-21 l55 0 3 48 c2 36 0 47 -11 47 -8 0 -29 13 -47 30 -49 45 -123 60 -196 39z"/>
<path d="M340 520 c0 -36 3 -40 25 -40 l25 0 0 -150 0 -150 -25 0 c-23 0 -25
-4 -25 -45 l0 -46 98 3 97 3 3 42 c3 40 1 43 -22 43 -24 0 -26 3 -26 50 l0 50
40 0 c57 0 74 -22 89 -114 l13 -77 66 3 67 3 3 43 c3 36 0 42 -17 42 -15 0
-23 12 -35 54 -9 29 -22 59 -30 65 -11 9 -8 17 20 45 30 30 34 41 34 84 0 35
-6 57 -21 76 -39 50 -65 56 -229 56 l-150 0 0 -40z m268 -56 c25 -17 29 -56 7
-77 -15 -16 -99 -32 -115 -22 -5 3 -10 31 -10 61 l0 54 48 0 c27 0 57 -7 70
-16z"/>
<path d="M812 518 c2 -36 7 -44 26 -46 22 -3 22 -6 22 -148 l0 -144 -26 0
c-23 0 -25 -3 -22 -42 l3 -43 188 -3 187 -2 0 85 0 85 -50 0 -50 0 0 -40 0
-40 -60 0 -60 0 0 55 0 55 45 0 45 0 0 45 0 45 -45 0 -45 0 0 45 0 45 60 0 60
0 0 -35 0 -35 50 0 50 0 0 80 0 80 -191 0 -190 0 3 -42z"/>
<path d="M1318 370 c-50 -151 -66 -190 -80 -190 -15 0 -18 -9 -18 -45 l0 -46
88 3 87 3 3 42 c3 40 1 43 -22 43 -30 0 -29 -2 -15 39 11 31 12 31 80 31 65 0
70 -2 79 -26 14 -36 13 -44 -10 -44 -17 0 -20 -7 -20 -45 l0 -46 88 3 87 3 3
43 c3 36 0 42 -16 42 -16 0 -29 31 -81 190 l-62 190 -64 0 -64 0 -63 -190z
m129 -38 c-22 -2 -41 -1 -44 1 -5 5 12 74 29 116 10 25 12 22 32 -44 l22 -70
-39 -3z"/>
<path d="M1710 520 c0 -36 3 -40 25 -40 l25 0 0 -150 0 -150 -25 0 c-23 0 -25
-4 -25 -45 l0 -45 188 2 187 3 3 88 3 88 -53 -3 -53 -3 -3 -43 -3 -42 -60 0
-59 0 0 150 0 150 25 0 c23 0 25 4 25 40 l0 40 -100 0 -100 0 0 -40z"/>
<path d="M2252 518 c2 -36 7 -44 26 -46 22 -3 22 -6 22 -148 l0 -144 -26 0
c-23 0 -25 -3 -22 -42 l3 -43 188 -3 187 -2 0 85 0 85 -50 0 -50 0 0 -40 0
-40 -60 0 -60 0 0 55 0 55 45 0 45 0 0 45 0 45 -45 0 -45 0 0 45 0 45 60 0 60
0 0 -35 0 -35 50 0 50 0 0 80 0 80 -191 0 -190 0 3 -42z"/>
<path d="M3042 493 l3 -68 50 0 c47 0 50 2 53 28 3 21 9 27 28 27 l24 0 0
-150 0 -150 -26 0 c-23 0 -25 -3 -22 -43 l3 -42 100 0 100 0 3 42 c3 40 1 43
-22 43 l-26 0 0 150 0 150 30 0 c27 0 30 -3 30 -30 0 -29 1 -30 50 -30 l50 0
0 70 0 70 -215 0 -216 0 3 -67z"/>
<path d="M3559 370 c-51 -151 -67 -190 -81 -190 -15 0 -18 -9 -18 -45 l0 -45
90 0 90 0 0 45 c0 41 -2 45 -25 45 -29 0 -28 -2 -14 39 11 31 12 31 80 31 57
0 70 -3 79 -19 16 -31 12 -51 -10 -51 -17 0 -20 -7 -20 -45 l0 -46 88 3 87 3
3 43 c3 35 0 42 -16 42 -15 0 -29 33 -79 188 l-61 187 -65 3 -65 3 -63 -191z
m129 -38 c-22 -2 -42 -1 -45 2 -4 4 15 74 34 126 3 9 15 -15 28 -55 l23 -70
-40 -3z"/>
<path d="M3890 490 l0 -70 50 0 c49 0 50 1 50 30 0 27 3 30 30 30 l30 0 0
-150 0 -150 -25 0 c-23 0 -25 -4 -25 -45 l0 -45 100 0 100 0 0 45 c0 41 -2 45
-25 45 l-25 0 0 150 0 150 35 0 c32 0 35 -2 35 -30 0 -29 1 -30 50 -30 l50 0
0 70 0 70 -215 0 -215 0 0 -70z"/>
<path d="M4362 518 c2 -36 7 -44 26 -46 22 -3 22 -6 22 -148 l0 -144 -26 0
c-23 0 -25 -3 -22 -42 l3 -43 188 -3 187 -2 0 85 0 85 -50 0 -50 0 0 -40 0
-40 -60 0 -60 0 0 55 0 55 45 0 45 0 0 45 0 45 -45 0 -45 0 0 45 0 45 60 0 60
0 0 -35 0 -35 50 0 50 0 0 80 0 80 -191 0 -190 0 3 -42z"/>
</g>
</svg>
